<svg xmlns="http://www.w3.org/2000/svg" width="30" height="30" viewBox="0 0 24 24"><path d="M10 16v2a19 19 0 0 1-1 3 13 13 0 0 1-2 3l-1 1a19 19 0 0 1 0-4 18 18 0 0 1 1-3l1-6a1 1 0 0 0 0-1 6 6 0 0 1 0-2 5 5 0 0 1 0-2 3 3 0 0 1 2-2 2 2 0 0 1 2 0 2 2 0 0 1 1 1 4 4 0 0 1 0 2l-1 4a4 4 0 0 0-1 1 2 2 0 0 0 1 2 2 2 0 0 0 2 0 4 4 0 0 0 3-1 9 9 0 0 0 1-5 12 12 0 0 0 0-2 5 5 0 0 0-1-3 5 5 0 0 0-2-2 8 8 0 0 0-4 0 7 7 0 0 0-5 3 7 7 0 0 0-1 4 4 4 0 0 0 1 2v1a2 2 0 0 1 0 1v1a1 1 0 0 1-1 0 5 5 0 0 1-3-4 9 9 0 0 1 0-3 9 9 0 0 1 5-6 10 10 0 0 1 4-2 13 13 0 0 1 1 0 10 10 0 0 1 5 1 9 9 0 0 1 3 2 8 8 0 0 1 2 4 8 8 0 0 1 0 2 14 14 0 0 1 0 2 9 9 0 0 1-4 7 7 7 0 0 1-4 1 5 5 0 0 1-2-1 3 3 0 0 1-2-1z" fill="#f38181" fill-rule="evenodd"/></svg>