<svg xmlns="http://www.w3.org/2000/svg" width="30" height="30" viewBox="0 0 24 24"><path d="M17 2a5 5 0 0 1 4 1 9 9 0 0 0 3-1 5 5 0 0 1-2 3 10 10 0 0 0 3-1 9 9 0 0 1-2 2l-1 1a15 15 0 0 1 0 3c-1 6-5 10-10 12a16 16 0 0 1-8 0 20 20 0 0 1-3-1 13 13 0 0 1-1-1h-1a9 9 0 0 0 2 0h1a11 11 0 0 0 4-1 6 6 0 0 0 1-1 5 5 0 0 1-2 0 5 5 0 0 1-3-4 5 5 0 0 0 2 0 4 4 0 0 1-1-1 5 5 0 0 1-3-4h1a5 5 0 0 0 1 1 1 1 0 0 0 1 0L2 9a5 5 0 0 1-2-5 6 6 0 0 1 1-1 3 3 0 0 0 1 0 9 9 0 0 0 1 2 15 15 0 0 0 7 3 10 10 0 0 0 2 0 5 5 0 0 1 0-2 5 5 0 0 1 3-4 6 6 0 0 1 1 0h1z" fill="#f38181" fill-rule="evenodd"/></svg>