<svg aria-hidden="true" style="position: absolute; width: 0; height: 0; overflow: hidden;" version="1.1" xmlns="http://www.w3.org/2000/svg" xmlns:xlink="http://www.w3.org/1999/xlink">
<defs>
<symbol id="cart" viewBox="0 0 32 32">
<title>cart</title>
<path d="M31.201 9.076l-4.412 9.784c-0.22 0.488-0.689 0.829-1.241 0.861l-0.004 0-12.665 0.845 0.729 2.094h13.804c1.621 0 2.935 1.314 2.935 2.935s-1.314 2.935-2.935 2.935c-1.62 0-2.934-1.313-2.935-2.933v-0h-13.697c-0.001 1.62-1.315 2.933-2.935 2.933s-2.935-1.314-2.935-2.935 1.314-2.935 2.935-2.935h2.65l-5.657-16.143h-3.362c-0.81 0-1.468-0.657-1.468-1.468s0.657-1.468 1.468-1.468v0h4.412c0.637 0.005 1.177 0.41 1.384 0.975l0.003 0.010 0.854 2.442h21.72c0.002 0 0.005-0 0.007-0 0.811 0 1.468 0.657 1.469 1.467v0c-0.005 0.217-0.050 0.423-0.129 0.611l0.004-0.011zM9.161 9.942l2.704 7.75 12.612-0.841 3.113-6.909h-18.429z"></path>
</symbol>
<symbol id="facebook" viewBox="0 0 32 32">
<title>facebook</title>
<path d="M22.4 2.133v4.267l-4.267 1.067v4.267h4.267l-1.067 4.267h-3.2v13.867h-6.4v-13.867h-2.133v-4.267h2.133l2.133-7.467c2.133-2.133 3.2-2.133 8.533-2.133z"></path>
</symbol>
<symbol id="glass" viewBox="0 0 32 32">
<title>glass</title>
<path d="M31.111 26.862c0.511 0.537 0.825 1.265 0.825 2.067 0 1.657-1.344 3.001-3.001 3.001-0.804 0-1.535-0.316-2.074-0.832l0.001 0.001-8.769-8.78c-1.753 1.056-3.87 1.68-6.132 1.68-6.645 0-12.032-5.387-12.032-12.032s5.387-12.032 12.032-12.032c6.645 0 12.032 5.387 12.032 12.032 0 2.255-0.62 4.365-1.7 6.169l0.030-0.055 8.788 8.78zM12.011 3.016c-4.963 0-8.987 4.024-8.987 8.987s4.024 8.987 8.987 8.987c4.963 0 8.987-4.024 8.987-8.987v0c-0.003-4.962-4.025-8.984-8.987-8.987h-0z"></path>
</symbol>
<symbol id="icon1" viewBox="0 0 32 32">
<title>icon1</title>
<path d="M30.74 10c-1.624-3.714-4.528-6.617-8.142-8.2l-0.101-0.040c0.989-0.787 2.257-1.262 3.636-1.262 3.241 0 5.868 2.627 5.868 5.868 0 1.378-0.475 2.645-1.27 3.646l0.009-0.012zM30.5 16.5c0 0.001 0 0.001 0 0.002 0 3.854-1.509 7.355-3.969 9.944l0.006-0.006 2.029 2.030c0.268 0.268 0.434 0.639 0.434 1.048 0 0.819-0.663 1.482-1.482 1.482-0 0-0.001 0-0.001 0h0c-0.409-0.002-0.779-0.166-1.049-0.43l-2.178-2.18c-2.311 1.633-5.186 2.61-8.29 2.61-3.098 0-5.968-0.973-8.322-2.631l0.046 0.031-2.163 2.16c-0.273 0.283-0.656 0.458-1.079 0.458-0.828 0-1.5-0.672-1.5-1.5 0-0.423 0.175-0.805 0.457-1.078l2.012-2.010c-2.441-2.588-3.941-6.087-3.941-9.936 0-8.005 6.49-14.495 14.495-14.495s14.495 6.49 14.495 14.495c0 0.002 0 0.004 0 0.006v-0zM16 5c-6.351 0-11.5 5.149-11.5 11.5s5.149 11.5 11.5 11.5c6.351 0 11.5-5.149 11.5-11.5v0c0-6.351-5.149-11.5-11.5-11.5v0zM22 18h-6c-0.828 0-1.5-0.672-1.5-1.5v0-8c0-0.828 0.672-1.5 1.5-1.5s1.5 0.672 1.5 1.5v0 6.5h4.5c0.828 0 1.5 0.672 1.5 1.5s-0.672 1.5-1.5 1.5v0zM1.287 10.21c-0.801-1.010-1.284-2.304-1.284-3.71 0-3.313 2.685-5.999 5.997-6h0c0.003 0 0.008 0 0.012 0 1.402 0 2.691 0.486 3.706 1.299l-0.012-0.009c-3.797 1.655-6.765 4.622-8.379 8.317l-0.040 0.103z"></path>
</symbol>
<symbol id="icon2" viewBox="0 0 32 32">
<title>icon2</title>
<path d="M30.5 32h-29c-0.828 0-1.5-0.672-1.5-1.5v0-29c0-0.828 0.672-1.5 1.5-1.5v0h29c0.828 0 1.5 0.672 1.5 1.5v0 29c0 0.828-0.672 1.5-1.5 1.5v0zM29 3h-26v26h26v-26zM5.215 16.24l4-2.5c0.225-0.138 0.497-0.22 0.789-0.22 0.311 0 0.601 0.093 0.842 0.253l-0.006-0.004h0.006l6.631 4.42 7.638-5.4c0.244-0.179 0.55-0.286 0.881-0.286 0.829 0 1.501 0.672 1.501 1.501 0 0.498-0.242 0.939-0.615 1.212l-0.004 0.003-8.5 6c-0.242 0.18-0.547 0.289-0.878 0.29h-0c-0.323-0.003-0.622-0.107-0.865-0.283l0.004 0.003-6.657-4.43-3.135 1.95c-0.236 0.169-0.529 0.27-0.847 0.27h-0c-0.001 0-0.002 0-0.003 0-0.828 0-1.5-0.672-1.5-1.5 0-0.539 0.284-1.012 0.712-1.276l0.006-0.004z"></path>
</symbol>
<symbol id="icon3" viewBox="0 0 32 32">
<title>icon3</title>
<path d="M30.452 25.29h-9.806v2.581l2.065 2.065v0.516h-13.419v-0.516l2.065-2.065v-2.581h-9.806c-0.855 0-1.548-0.693-1.548-1.548v0-20.645c0-0.855 0.693-1.548 1.548-1.548v0h28.903c0.855 0 1.548 0.693 1.548 1.548v0 20.645c0 0.855-0.693 1.548-1.548 1.548v0zM29.935 3.613h-27.871v17.548h27.871v-17.548zM12.903 10.839c0.427 0.001 0.814 0.174 1.094 0.454l0.97 0.97 3.035-3.035c0.283-0.304 0.686-0.493 1.133-0.493 0.855 0 1.548 0.693 1.548 1.548 0 0.447-0.189 0.849-0.492 1.132l-0.001 0.001-4.129 4.129c-0.28 0.28-0.667 0.453-1.094 0.453s-0.814-0.173-1.094-0.453l-2.065-2.065c-0.28-0.28-0.453-0.667-0.453-1.094 0-0.855 0.692-1.548 1.547-1.548h0z"></path>
</symbol>
<symbol id="icon4" viewBox="0 0 32 32">
<title>icon4</title>
<path d="M31.065 25.89l-14.471 5.99c-0.175 0.076-0.38 0.12-0.594 0.12s-0.419-0.044-0.604-0.124l0.010 0.004-14.471-5.99c-0.553-0.229-0.935-0.765-0.935-1.39 0-0 0-0 0-0v0-23c0-0.828 0.672-1.5 1.5-1.5v0c0.206 0 0.403 0.040 0.583 0.114l-0.010-0.004c0.001 0.006 0.006 0.010 0.012 0.010 0 0 0.001-0 0.001-0h-0l13.914 5.76 13.911-5.76c0 0 0.001 0 0.001 0 0.006 0 0.011-0.004 0.012-0.010v-0c0.17-0.070 0.367-0.11 0.573-0.11h0c0.828 0 1.5 0.672 1.5 1.5v0 23c0 0 0 0.001 0 0.002 0 0.624-0.381 1.158-0.922 1.385l-0.010 0.004zM14.5 8.5l-11.5-4.76v19.76l11.5 4.76v-19.76zM29 3.74l-11.5 4.76v19.76l11.5-4.76v-19.76zM19.879 10.63l5.5-2.5c0.183-0.081 0.396-0.129 0.62-0.13h0c0.003-0 0.007-0 0.010-0 0.828 0 1.5 0.672 1.5 1.5 0 0.607-0.361 1.13-0.88 1.366l-0.009 0.004-5.5 2.5c-0.183 0.081-0.396 0.128-0.62 0.13h-0.001c-0.003 0-0.007 0-0.010 0-0.828 0-1.5-0.672-1.5-1.5 0-0.607 0.361-1.13 0.88-1.366l0.009-0.004zM19.879 16.13l5.5-2.5c0.183-0.081 0.396-0.129 0.62-0.13h0c0.003-0 0.007-0 0.010-0 0.828 0 1.5 0.672 1.5 1.5 0 0.607-0.361 1.13-0.88 1.366l-0.009 0.004-5.5 2.5v-0.010c-0.182 0.088-0.395 0.14-0.62 0.14-0 0-0 0-0.001 0h0c-0.003 0-0.007 0-0.010 0-0.828 0-1.5-0.672-1.5-1.5 0-0.607 0.361-1.13 0.88-1.366l0.009-0.004zM19.879 21.63l5.5-2.5c0.183-0.081 0.396-0.129 0.62-0.13h0c0.003-0 0.007-0 0.010-0 0.828 0 1.5 0.672 1.5 1.5 0 0.607-0.361 1.13-0.88 1.366l-0.009 0.004-5.5 2.5c-0.183 0.081-0.396 0.128-0.62 0.13h-0.001c-0.003 0-0.007 0-0.010 0-0.828 0-1.5-0.672-1.5-1.5 0-0.607 0.361-1.13 0.88-1.366l0.009-0.004zM6 8c0.225 0.002 0.438 0.049 0.631 0.134l-0.010-0.004 5.5 2.5c0.528 0.24 0.889 0.763 0.889 1.37 0 0.828-0.672 1.5-1.5 1.5-0.004 0-0.007 0-0.011-0h0.001c-0.225-0.001-0.438-0.049-0.631-0.134l0.010 0.004-5.5-2.5c-0.528-0.24-0.889-0.763-0.889-1.37 0-0.828 0.672-1.5 1.5-1.5 0.004 0 0.007 0 0.011 0h-0.001zM6 13.5c0.225 0.002 0.438 0.049 0.631 0.134l-0.010-0.004 5.5 2.5c0.528 0.24 0.889 0.763 0.889 1.37 0 0.828-0.672 1.5-1.5 1.5-0.004 0-0.007 0-0.011-0h0.001c-0.001 0-0.001 0-0.002 0-0.225 0-0.438-0.052-0.628-0.144l0.009 0.004v0.010l-5.5-2.5c-0.528-0.24-0.889-0.763-0.889-1.37 0-0.828 0.672-1.5 1.5-1.5 0.004 0 0.007 0 0.011 0h-0.001zM6 19c0.225 0.002 0.438 0.049 0.631 0.134l-0.010-0.004 5.5 2.5c0.528 0.24 0.889 0.763 0.889 1.37 0 0.828-0.672 1.5-1.5 1.5-0.004 0-0.007 0-0.011-0h0.001c-0.225-0.001-0.438-0.049-0.631-0.134l0.010 0.004-5.5-2.5c-0.528-0.24-0.889-0.763-0.889-1.37 0-0.828 0.672-1.5 1.5-1.5 0.004 0 0.007 0 0.011 0h-0.001z"></path>
</symbol>
<symbol id="icon5" viewBox="0 0 32 32">
<title>icon5</title>
<path d="M32 16.5c0 0.002 0 0.004 0 0.006 0 0.825-0.668 1.493-1.493 1.493-0.398 0-0.76-0.156-1.028-0.41l0.001 0.001v0.010l-13.477-13.48-13.446 13.45c-0.272 0.264-0.643 0.428-1.053 0.43h-0c-0.828 0-1.5-0.672-1.5-1.5v0c0-0.002-0-0.005-0-0.007 0-0.422 0.177-0.803 0.46-1.072l0.001-0.001 14.458-14.46c0.274-0.283 0.657-0.459 1.081-0.46h0.092c0.023 0 0.045 0.010 0.068 0.010 0.371 0.040 0.696 0.213 0.932 0.469l0.001 0.001 5.9 5.9v-1.38c0-0.828 0.672-1.5 1.5-1.5s1.5 0.672 1.5 1.5v0 4.38l5.6 5.6c0.25 0.265 0.403 0.623 0.403 1.017 0 0.001 0 0.002 0 0.003v-0zM29 19v10.5c0 0.828-0.672 1.5-1.5 1.5v0h-3v-12h-6v12h-14c-0.828 0-1.5-0.672-1.5-1.5v0-10.5l13-13zM13.5 19h-6v6h6v-6z"></path>
</symbol>
<symbol id="icon6" viewBox="0 0 32 32">
<title>icon6</title>
<path d="M30.5 32h-29c-0.828 0-1.5-0.672-1.5-1.5v0-29c0-0.828 0.672-1.5 1.5-1.5v0h29c0.828 0 1.5 0.672 1.5 1.5v0 29c0 0.828-0.672 1.5-1.5 1.5v0zM29 3h-26v26h26v-26zM6.5 4.5h5.5c0.828 0 1.5 0.672 1.5 1.5s-0.672 1.5-1.5 1.5v0h-4.5v4.5c0 0.828-0.672 1.5-1.5 1.5s-1.5-0.672-1.5-1.5v0-7.5h2zM4.5 20c0-0.828 0.672-1.5 1.5-1.5s1.5 0.672 1.5 1.5v0 4.5h4.5c0.828 0 1.5 0.672 1.5 1.5s-0.672 1.5-1.5 1.5v0h-7.5v-7.5zM20 4.5h7.5v7.5c0 0.828-0.672 1.5-1.5 1.5s-1.5-0.672-1.5-1.5v0-4.5h-4.5c-0.828 0-1.5-0.672-1.5-1.5s0.672-1.5 1.5-1.5v0zM20 24.5h4.5v-4.5c0-0.828 0.672-1.5 1.5-1.5s1.5 0.672 1.5 1.5v0 7.5h-7.5c-0.828 0-1.5-0.672-1.5-1.5s0.672-1.5 1.5-1.5v0z"></path>
</symbol>
<symbol id="instagram" viewBox="0 0 32 32">
<title>instagram</title>
<path d="M26.667 29.867h-21.333c-1.767 0-3.2-1.433-3.2-3.2v0-21.333c0-1.767 1.433-3.2 3.2-3.2v0h21.333c1.767 0 3.2 1.433 3.2 3.2v0 21.333c0 1.767-1.433 3.2-3.2 3.2v0zM16 10.667c-0.131-0.011-0.283-0.018-0.437-0.018-2.181 0-4.056 1.309-4.882 3.184l-0.013 0.034v1.067c-0.017 0.16-0.027 0.345-0.027 0.533s0.010 0.373 0.029 0.556l-0.002-0.023c0 2.946 2.388 5.333 5.333 5.333s5.333-2.388 5.333-5.333v0c0.017-0.16 0.027-0.345 0.027-0.533s-0.010-0.373-0.029-0.556l0.002 0.023v-1.067h-1.067c-0.751-1.726-2.341-2.961-4.241-3.197l-0.026-0.003zM26.667 6.4c0-0.589-0.478-1.067-1.067-1.067v0h-3.2c-0.589 0-1.067 0.478-1.067 1.067v0 3.2c0 0.589 0.478 1.067 1.067 1.067v0h3.2c0.589 0 1.067-0.478 1.067-1.067v0-3.2zM26.667 13.867h-2.133c0 4.713-3.82 8.533-8.533 8.533s-8.533-3.82-8.533-8.533v0h-2.133v11.733c0 0.589 0.478 1.067 1.067 1.067v0h19.2c0.589 0 1.067-0.478 1.067-1.067v0-11.733z"></path>
</symbol>
<symbol id="pinterest" viewBox="0 0 32 32">
<title>pinterest</title>
<path d="M13.333 21.333v2.667c-0.381 1.552-0.838 2.885-1.397 4.163l0.064-0.163c-0.745 1.528-1.635 2.844-2.682 4.017l0.015-0.017-1.333 1.333c-0.090-0.8-0.141-1.727-0.141-2.667s0.051-1.867 0.151-2.78l-0.010 0.113c0.372-1.545 0.829-2.878 1.394-4.153l-0.061 0.153 1.333-8c0.112-0.191 0.179-0.421 0.179-0.667s-0.066-0.475-0.182-0.673l0.003 0.006c-0.071-0.401-0.112-0.862-0.112-1.333s0.041-0.932 0.119-1.381l-0.007 0.048c-0.086-0.401-0.135-0.861-0.135-1.333s0.049-0.932 0.142-1.377l-0.008 0.043c0.397-1.281 1.386-2.269 2.638-2.659l0.028-0.008c0.382-0.225 0.842-0.357 1.333-0.357s0.951 0.133 1.346 0.364l-0.013-0.007c0.594 0.273 1.061 0.739 1.326 1.317l0.007 0.017c0.108 0.4 0.169 0.859 0.169 1.333s-0.062 0.933-0.178 1.371l0.008-0.037-1.333 5.333c-0.524 0.367-0.966 0.809-1.322 1.316l-0.011 0.017c-0.014 0.103-0.022 0.223-0.022 0.345 0 0.991 0.54 1.856 1.343 2.315l0.013 0.007c0.382 0.225 0.842 0.357 1.333 0.357s0.951-0.133 1.346-0.364l-0.013 0.007c0.135 0.012 0.292 0.019 0.451 0.019 1.365 0 2.611-0.513 3.554-1.357l-0.005 0.005c0.87-1.62 1.382-3.546 1.382-5.59 0-0.379-0.018-0.754-0.052-1.124l0.004 0.047c0.035-0.399 0.056-0.864 0.056-1.333s-0.020-0.934-0.060-1.393l0.004 0.060c0-1.508-0.501-2.9-1.345-4.017l0.012 0.017c-0.625-1.133-1.534-2.042-2.632-2.649l-0.034-0.017c-0.8-0.215-1.719-0.339-2.667-0.339s-1.866 0.124-2.741 0.356l0.074-0.017c-2.778 0.318-5.154 1.814-6.646 3.969l-0.020 0.031c-0.846 1.377-1.347 3.045-1.347 4.83 0 0.177 0.005 0.353 0.015 0.528l-0.001-0.024c0.194 1.041 0.667 1.948 1.336 2.67l-0.003-0.003v1.333c0.054 0.2 0.085 0.43 0.085 0.667s-0.031 0.467-0.089 0.685l0.004-0.019v1.333c-0.191 0.112-0.421 0.179-0.667 0.179s-0.475-0.066-0.673-0.182l0.006 0.003c-2.158-0.939-3.702-2.926-3.997-5.301l-0.003-0.033c-0.107-0.601-0.168-1.293-0.168-2s0.061-1.399 0.178-2.072l-0.010 0.072c0.922-3.588 3.369-6.473 6.593-7.969l0.074-0.031c1.488-1.233 3.279-2.158 5.242-2.647l0.092-0.019c0.199-0.008 0.432-0.013 0.667-0.013s0.468 0.005 0.7 0.014l-0.033-0.001c0.241-0.016 0.522-0.024 0.805-0.024 2.134 0 4.151 0.501 5.939 1.393l-0.077-0.035c1.559 0.644 2.889 1.546 3.999 2.666l0.001 0.001c1.333 1.437 2.278 3.252 2.656 5.267l0.010 0.066c0.053 0.4 0.084 0.863 0.084 1.333s-0.030 0.933-0.089 1.387l0.006-0.054c0.030 0.399 0.048 0.864 0.048 1.333s-0.017 0.934-0.051 1.395l0.004-0.062c-0.22 3.896-2.267 7.271-5.29 9.306l-0.043 0.027c-1.377 0.846-3.045 1.347-4.83 1.347-0.177 0-0.353-0.005-0.528-0.015l0.024 0.001c-1.027-0.254-1.923-0.717-2.678-1.342l0.011 0.009c-1.066-0.090-2.001-0.585-2.663-1.329l-0.004-0.004z"></path>
</symbol>
<symbol id="twitter" viewBox="0 0 32 32">
<title>twitter</title>
<path d="M22.667 2.667c0.359-0.069 0.772-0.108 1.194-0.108 1.57 0 3.014 0.543 4.153 1.451l-0.013-0.010c1.496-0.224 2.844-0.691 4.062-1.365l-0.062 0.031c-0.379 1.662-1.337 3.055-2.646 3.986l-0.020 0.014c1.499-0.251 2.843-0.716 4.072-1.368l-0.072 0.035c-0.754 1.032-1.635 1.913-2.633 2.643l-0.034 0.024-1.333 1.333c0.064 0.6 0.1 1.296 0.1 2s-0.036 1.4-0.107 2.086l0.007-0.086c-1.333 8-6.667 13.333-13.333 16-1.601 0.43-3.438 0.677-5.333 0.677s-3.733-0.247-5.482-0.711l0.149 0.034c-1.56-0.389-2.892-0.846-4.173-1.4l0.173 0.067c-0.473-0.425-0.908-0.86-1.319-1.318l-0.014-0.016h-1.333c0.4 0.047 0.864 0.074 1.333 0.074s0.933-0.027 1.389-0.079l-0.056 0.005h1.333c1.956-0.114 3.774-0.593 5.423-1.371l-0.089 0.038c0.5-0.396 0.938-0.834 1.321-1.317l0.013-0.017c-0.401 0.086-0.861 0.135-1.333 0.135s-0.933-0.049-1.377-0.142l0.043 0.008c-2.158-0.939-3.702-2.926-3.997-5.301l-0.003-0.032c0.401 0.086 0.861 0.135 1.333 0.135s0.933-0.049 1.377-0.142l-0.043 0.008c-0.524-0.367-0.966-0.809-1.322-1.316l-0.011-0.017c-2.158-0.939-3.702-2.926-3.997-5.301l-0.003-0.033h1.333c0.385 0.509 0.824 0.949 1.317 1.321l0.017 0.012c0.191 0.112 0.421 0.179 0.667 0.179s0.475-0.066 0.673-0.182l-0.006 0.003-1.333-1.333c-1.694-1.224-2.784-3.195-2.784-5.42 0-0.441 0.043-0.872 0.125-1.289l-0.007 0.042c0.396-0.5 0.834-0.938 1.317-1.321l0.017-0.013c0.2 0.036 0.431 0.056 0.667 0.056s0.466-0.020 0.691-0.059l-0.024 0.003c0.364 1.018 0.814 1.899 1.36 2.709l-0.027-0.043c2.593 2.034 5.761 3.454 9.222 3.986l0.112 0.014c0.4 0.043 0.864 0.067 1.333 0.067s0.933-0.024 1.391-0.072l-0.057 0.005c-0.086-0.401-0.135-0.861-0.135-1.333s0.049-0.932 0.142-1.377l-0.008 0.043c0.298-2.407 1.842-4.395 3.957-5.317l0.043-0.017c0.2-0.018 0.432-0.028 0.667-0.028s0.467 0.010 0.697 0.030l-0.030-0.002h1.333z"></path>
</symbol>
</defs>
</svg>
