<svg id="instagram" viewBox="0 0 32 32">
<title>instagram</title>
<path d="M26.667 29.867h-21.333c-1.767 0-3.2-1.433-3.2-3.2v0-21.333c0-1.767 1.433-3.2 3.2-3.2v0h21.333c1.767 0 3.2 1.433 3.2 3.2v0 21.333c0 1.767-1.433 3.2-3.2 3.2v0zM16 10.667c-0.131-0.011-0.283-0.018-0.437-0.018-2.181 0-4.056 1.309-4.882 3.184l-0.013 0.034v1.067c-0.017 0.16-0.027 0.345-0.027 0.533s0.010 0.373 0.029 0.556l-0.002-0.023c0 2.946 2.388 5.333 5.333 5.333s5.333-2.388 5.333-5.333v0c0.017-0.16 0.027-0.345 0.027-0.533s-0.010-0.373-0.029-0.556l0.002 0.023v-1.067h-1.067c-0.751-1.726-2.341-2.961-4.241-3.197l-0.026-0.003zM26.667 6.4c0-0.589-0.478-1.067-1.067-1.067v0h-3.2c-0.589 0-1.067 0.478-1.067 1.067v0 3.2c0 0.589 0.478 1.067 1.067 1.067v0h3.2c0.589 0 1.067-0.478 1.067-1.067v0-3.2zM26.667 13.867h-2.133c0 4.713-3.82 8.533-8.533 8.533s-8.533-3.82-8.533-8.533v0h-2.133v11.733c0 0.589 0.478 1.067 1.067 1.067v0h19.2c0.589 0 1.067-0.478 1.067-1.067v0-11.733z"></path>
</svg>