<svg id="pinterest" viewBox="0 0 32 32">
<title>pinterest</title>
<path d="M13.333 21.333v2.667c-0.381 1.552-0.838 2.885-1.397 4.163l0.064-0.163c-0.745 1.528-1.635 2.844-2.682 4.017l0.015-0.017-1.333 1.333c-0.090-0.8-0.141-1.727-0.141-2.667s0.051-1.867 0.151-2.78l-0.010 0.113c0.372-1.545 0.829-2.878 1.394-4.153l-0.061 0.153 1.333-8c0.112-0.191 0.179-0.421 0.179-0.667s-0.066-0.475-0.182-0.673l0.003 0.006c-0.071-0.401-0.112-0.862-0.112-1.333s0.041-0.932 0.119-1.381l-0.007 0.048c-0.086-0.401-0.135-0.861-0.135-1.333s0.049-0.932 0.142-1.377l-0.008 0.043c0.397-1.281 1.386-2.269 2.638-2.659l0.028-0.008c0.382-0.225 0.842-0.357 1.333-0.357s0.951 0.133 1.346 0.364l-0.013-0.007c0.594 0.273 1.061 0.739 1.326 1.317l0.007 0.017c0.108 0.4 0.169 0.859 0.169 1.333s-0.062 0.933-0.178 1.371l0.008-0.037-1.333 5.333c-0.524 0.367-0.966 0.809-1.322 1.316l-0.011 0.017c-0.014 0.103-0.022 0.223-0.022 0.345 0 0.991 0.54 1.856 1.343 2.315l0.013 0.007c0.382 0.225 0.842 0.357 1.333 0.357s0.951-0.133 1.346-0.364l-0.013 0.007c0.135 0.012 0.292 0.019 0.451 0.019 1.365 0 2.611-0.513 3.554-1.357l-0.005 0.005c0.87-1.62 1.382-3.546 1.382-5.59 0-0.379-0.018-0.754-0.052-1.124l0.004 0.047c0.035-0.399 0.056-0.864 0.056-1.333s-0.020-0.934-0.060-1.393l0.004 0.060c0-1.508-0.501-2.9-1.345-4.017l0.012 0.017c-0.625-1.133-1.534-2.042-2.632-2.649l-0.034-0.017c-0.8-0.215-1.719-0.339-2.667-0.339s-1.866 0.124-2.741 0.356l0.074-0.017c-2.778 0.318-5.154 1.814-6.646 3.969l-0.020 0.031c-0.846 1.377-1.347 3.045-1.347 4.83 0 0.177 0.005 0.353 0.015 0.528l-0.001-0.024c0.194 1.041 0.667 1.948 1.336 2.67l-0.003-0.003v1.333c0.054 0.2 0.085 0.43 0.085 0.667s-0.031 0.467-0.089 0.685l0.004-0.019v1.333c-0.191 0.112-0.421 0.179-0.667 0.179s-0.475-0.066-0.673-0.182l0.006 0.003c-2.158-0.939-3.702-2.926-3.997-5.301l-0.003-0.033c-0.107-0.601-0.168-1.293-0.168-2s0.061-1.399 0.178-2.072l-0.010 0.072c0.922-3.588 3.369-6.473 6.593-7.969l0.074-0.031c1.488-1.233 3.279-2.158 5.242-2.647l0.092-0.019c0.199-0.008 0.432-0.013 0.667-0.013s0.468 0.005 0.7 0.014l-0.033-0.001c0.241-0.016 0.522-0.024 0.805-0.024 2.134 0 4.151 0.501 5.939 1.393l-0.077-0.035c1.559 0.644 2.889 1.546 3.999 2.666l0.001 0.001c1.333 1.437 2.278 3.252 2.656 5.267l0.010 0.066c0.053 0.4 0.084 0.863 0.084 1.333s-0.030 0.933-0.089 1.387l0.006-0.054c0.030 0.399 0.048 0.864 0.048 1.333s-0.017 0.934-0.051 1.395l0.004-0.062c-0.22 3.896-2.267 7.271-5.29 9.306l-0.043 0.027c-1.377 0.846-3.045 1.347-4.83 1.347-0.177 0-0.353-0.005-0.528-0.015l0.024 0.001c-1.027-0.254-1.923-0.717-2.678-1.342l0.011 0.009c-1.066-0.090-2.001-0.585-2.663-1.329l-0.004-0.004z"></path>
</svg>