<svg id="cart" viewBox="0 0 32 32">
<title>cart</title>
<path d="M31.201 9.076l-4.412 9.784c-0.22 0.488-0.689 0.829-1.241 0.861l-0.004 0-12.665 0.845 0.729 2.094h13.804c1.621 0 2.935 1.314 2.935 2.935s-1.314 2.935-2.935 2.935c-1.62 0-2.934-1.313-2.935-2.933v-0h-13.697c-0.001 1.62-1.315 2.933-2.935 2.933s-2.935-1.314-2.935-2.935 1.314-2.935 2.935-2.935h2.65l-5.657-16.143h-3.362c-0.81 0-1.468-0.657-1.468-1.468s0.657-1.468 1.468-1.468v0h4.412c0.637 0.005 1.177 0.41 1.384 0.975l0.003 0.010 0.854 2.442h21.72c0.002 0 0.005-0 0.007-0 0.811 0 1.468 0.657 1.469 1.467v0c-0.005 0.217-0.050 0.423-0.129 0.611l0.004-0.011zM9.161 9.942l2.704 7.75 12.612-0.841 3.113-6.909h-18.429z"></path>
</svg>